<?xml version="1.0" encoding="UTF-8"?><svg id="_레이어_2" xmlns="http://www.w3.org/2000/svg" viewBox="0 0 520 353.67"><defs><style>.cls-1{fill:var(--color-primaryContainer);}.cls-2{fill:var(--color-primary);}</style></defs><g id="_세로">
<g id="primary_container">
  <path class="cls-1" d="M108.14,113.98l-12.94,29c-2.23,4.89-4.03,8.18-5.39,9.87-1.37,1.69-2.88,2.53-4.53,2.53s-2.98-.68-4.2-2.05c-.79-.86-2.61-4.03-5.44-9.49-2.84-5.46-5.19-10.31-7.06-14.55l-14.23-32.02c-1.94-4.46-3.99-6.68-6.14-6.68-2.3,0-3.56,1.91-3.77,5.71-.5,8.48-.75,16.32-.75,23.5s.36,12.54,1.08,15.2c.5,1.58,1.17,2.73,2,3.45,.83,.72,3.07,2.01,6.74,3.88,2.37,1.22,3.56,3.34,3.56,6.36,0,8.05-10.31,12.07-30.94,12.07-17.39,0-26.09-3.92-26.09-11.75,0-2.01,.45-3.47,1.35-4.37s3.22-2.25,6.95-4.04c2.37-1.08,3.97-2.55,4.8-4.42,.83-1.87,1.53-5.5,2.1-10.89,.65-5.75,1.26-15.18,1.83-28.3,.57-13.12,.86-24.35,.86-33.69,0-11.71-.9-19.66-2.7-23.83-.65-1.44-1.38-2.51-2.21-3.23-.83-.72-2.39-1.65-4.69-2.8C3.2,31,.65,27.84,.65,23.96c0-2.51,.95-4.81,2.86-6.9,1.9-2.08,4.44-3.56,7.6-4.42,3.16-.93,7.38-1.74,12.67-2.43,5.28-.68,9.76-1.03,13.42-1.03,9.2,0,15.7,.76,19.51,2.26,1.87,.72,3.34,1.69,4.42,2.91,1.08,1.22,2.62,3.74,4.64,7.55l22.43,41.29c2.44,4.53,4.13,7.3,5.07,8.3,.93,1.01,2.23,1.51,3.88,1.51,1.44,0,2.71-.54,3.83-1.62,1.11-1.08,2.43-3.09,3.93-6.04l15.2-29.65c1.87-3.81,3.09-6.29,3.67-7.44,3.52-7.19,7.01-11.97,10.46-14.34,4.38-3.09,12.36-4.64,23.93-4.64,20.34,0,30.51,4.64,30.51,13.91,0,2.09-.4,3.76-1.19,5.01-.79,1.26-2.41,2.79-4.85,4.58-3.31,2.52-5.39,6.14-6.25,10.89-1.65,9.92-2.48,21.99-2.48,36.22,0,18.33,.86,34.39,2.59,48.19,.43,3.38,1.09,5.68,1.99,6.9,.9,1.22,3.22,3.06,6.95,5.5,2.59,1.72,3.88,4.03,3.88,6.9,0,5.03-3.34,8.59-10.03,10.67-3.45,1.15-7.08,1.9-10.89,2.26-3.81,.36-9.67,.54-17.57,.54-12.15,0-21.2-.86-27.17-2.59-6.61-1.94-9.92-5.25-9.92-9.92,0-1.72,.43-3.14,1.29-4.26,.86-1.11,3.09-3.14,6.68-6.09,1.87-1.51,3.14-4.42,3.83-8.73,.68-4.31,1.03-11.64,1.03-21.99,0-5.75-.27-9.52-.81-11.32-.54-1.8-1.67-2.7-3.4-2.7-2.01,0-3.95,1.38-5.82,4.15-1.87,2.77-4.67,8.28-8.41,16.55Z"/><path class="cls-1" d="M487.44,79.48v36.44c0,4.31,1.06,7.83,3.18,10.57,2.12,2.73,4.83,4.1,8.14,4.1,2.8,0,6.5-1.29,11.11-3.88,1.08-.65,2.16-.97,3.23-.97,1.72,0,3.3,1.04,4.74,3.13,1.44,2.09,2.16,4.35,2.16,6.79,0,4.46-2.44,8.73-7.33,12.83-10.21,8.7-22.57,13.05-37.09,13.05-11.5,0-20.74-3.25-27.71-9.76-6.97-6.5-10.46-15.08-10.46-25.71v-49.81c0-1.65-.2-2.68-.59-3.07-.4-.39-1.42-.59-3.07-.59h-11.11c-2.09,0-3.41-.34-3.99-1.02-.57-.68-.86-2.28-.86-4.8v-4.74c.07-2.16,.9-3.74,2.48-4.74l49.38-31.05c1.22-.65,2.73-.97,4.53-.97h8.73c1.8,0,3,.41,3.61,1.24,.61,.83,.92,2.46,.92,4.91v14.55c0,2.16,.34,3.56,1.02,4.21,.68,.65,2.14,.97,4.37,.97h19.95c2.66,0,4.38,.49,5.17,1.46,.79,.97,1.19,3.04,1.19,6.2v6.36c0,3.45-.5,5.84-1.51,7.17-1.01,1.33-2.84,1.99-5.5,1.99h-19.51c-2.01,0-3.38,.36-4.1,1.08-.72,.72-1.08,2.09-1.08,4.1Z"/><path class="cls-1" d="M108.14,305.71l-12.94,29c-2.23,4.89-4.03,8.18-5.39,9.87-1.37,1.69-2.88,2.53-4.53,2.53s-2.98-.68-4.2-2.05c-.79-.86-2.6-4.03-5.45-9.49-2.84-5.46-5.19-10.31-7.06-14.55l-14.23-32.02c-1.94-4.46-3.99-6.68-6.14-6.68-2.3,0-3.56,1.91-3.77,5.71-.5,8.48-.75,16.32-.75,23.5s.36,12.54,1.08,15.2c.5,1.58,1.17,2.73,2,3.45,.83,.72,3.07,2.01,6.74,3.88,2.37,1.22,3.56,3.34,3.56,6.36,0,8.05-10.32,12.07-30.94,12.07-17.4,0-26.09-3.92-26.09-11.75,0-2.01,.45-3.47,1.35-4.37s3.21-2.25,6.95-4.04c2.37-1.08,3.97-2.55,4.8-4.42,.83-1.87,1.53-5.5,2.1-10.89,.65-5.75,1.26-15.18,1.83-28.3,.57-13.12,.86-24.35,.86-33.69,0-11.71-.9-19.66-2.7-23.83-.65-1.44-1.38-2.51-2.21-3.23-.83-.72-2.39-1.65-4.69-2.8-5.1-2.44-7.65-5.61-7.65-9.49,0-2.51,.95-4.81,2.86-6.9,1.9-2.08,4.44-3.56,7.6-4.42,3.16-.93,7.39-1.74,12.67-2.43,5.28-.68,9.76-1.03,13.42-1.03,9.2,0,15.7,.76,19.51,2.26,1.87,.72,3.34,1.69,4.42,2.91,1.08,1.22,2.62,3.74,4.64,7.55l22.42,41.29c2.44,4.53,4.13,7.3,5.07,8.3s2.23,1.51,3.88,1.51c1.44,0,2.71-.54,3.83-1.62,1.11-1.08,2.43-3.09,3.94-6.04l15.2-29.65c1.87-3.81,3.09-6.29,3.67-7.44,3.52-7.19,7.01-11.97,10.46-14.34,4.38-3.09,12.36-4.64,23.93-4.64,20.34,0,30.51,4.64,30.51,13.91,0,2.09-.4,3.76-1.19,5.01-.79,1.26-2.41,2.79-4.85,4.58-3.31,2.52-5.39,6.14-6.25,10.89-1.65,9.92-2.48,21.99-2.48,36.22,0,18.33,.86,34.39,2.59,48.19,.43,3.38,1.09,5.68,1.99,6.9,.9,1.22,3.22,3.06,6.95,5.5,2.59,1.72,3.88,4.03,3.88,6.9,0,5.03-3.34,8.59-10.03,10.67-3.45,1.15-7.08,1.9-10.89,2.26-3.81,.36-9.67,.54-17.57,.54-12.15,0-21.2-.86-27.17-2.59-6.61-1.94-9.92-5.25-9.92-9.92,0-1.72,.43-3.14,1.29-4.26,.86-1.11,3.09-3.14,6.68-6.09,1.87-1.51,3.14-4.42,3.83-8.73,.68-4.31,1.02-11.64,1.02-21.99,0-5.75-.27-9.52-.81-11.32-.54-1.8-1.67-2.7-3.4-2.7-2.01,0-3.95,1.38-5.82,4.15-1.87,2.77-4.67,8.28-8.41,16.55Z"/><path class="cls-1" d="M487.44,271.21v36.44c0,4.31,1.06,7.83,3.18,10.57,2.12,2.73,4.83,4.1,8.14,4.1,2.8,0,6.5-1.29,11.1-3.88,1.08-.65,2.16-.97,3.23-.97,1.72,0,3.31,1.04,4.74,3.13,1.44,2.09,2.16,4.35,2.16,6.79,0,4.46-2.44,8.73-7.33,12.83-10.21,8.7-22.57,13.05-37.09,13.05-11.5,0-20.74-3.25-27.71-9.76-6.97-6.5-10.46-15.08-10.46-25.71v-49.81c0-1.65-.2-2.68-.59-3.07-.4-.39-1.42-.59-3.07-.59h-11.1c-2.09,0-3.41-.34-3.99-1.02-.57-.68-.86-2.28-.86-4.8v-4.74c.07-2.16,.9-3.74,2.48-4.74l49.38-31.05c1.22-.65,2.73-.97,4.53-.97h8.73c1.8,0,3,.41,3.61,1.24,.61,.83,.92,2.46,.92,4.91v14.55c0,2.16,.34,3.56,1.02,4.21,.68,.65,2.14,.97,4.37,.97h19.94c2.66,0,4.38,.49,5.17,1.46,.79,.97,1.19,3.04,1.19,6.2v6.36c0,3.45-.5,5.84-1.51,7.17-1.01,1.33-2.84,1.99-5.5,1.99h-19.51c-2.01,0-3.38,.36-4.1,1.08s-1.08,2.09-1.08,4.1Z"/></g>
<g id="primary"><g>
  <path class="cls-2" d="M253.08,37.88l8.35-32.37c.63-2.44-.99-4.9-3.48-5.28h0c-2.59-.4-4.92,1.61-4.92,4.22l.05,33.43Z"/><path class="cls-2" d="M247.66,34.88l-5.15-22.85c-.43-1.89-2.4-3-4.24-2.38h0c-1.92,.65-2.79,2.88-1.82,4.66l11.2,20.57Z"/><path class="cls-2" d="M263.92,37.34l17.24-15.86c1.43-1.31,1.4-3.58-.05-4.86h0c-1.52-1.34-3.89-.98-4.94,.75l-12.24,19.97Z"/></g><g><path class="cls-2" d="M369.74,35.24l16.95-28.81c1.28-2.18,.4-4.98-1.89-6.04h0c-2.38-1.1-5.17,.19-5.89,2.7l-9.17,32.14Z"/><path class="cls-2" d="M365.36,30.86l1.35-23.38c.11-1.94-1.48-3.55-3.42-3.45h0c-2.03,.1-3.47,2-3.03,3.98l5.1,22.86Z"/><path class="cls-2" d="M380.32,37.71l20.94-10.49c1.74-.87,2.34-3.05,1.29-4.69h0c-1.09-1.71-3.46-2.02-4.96-.65l-17.27,15.82Z"/></g><path class="cls-2" d="M280.13,59.52c-4.79-3.74-10.16-6.46-16.11-8.15-4.61-1.33-9.28-1.99-14.01-1.99-7.39,0-14.93,1.63-22.6,4.88-7.87,3.34-14.58,7.87-20.12,13.58-7.4,7.59-12.38,16.46-14.94,26.6-2.99,11.73-2.12,23.15,2.6,34.27,3.51,8.27,8.8,15.32,15.88,21.13,5.36,4.36,11.17,7.56,17.42,9.59,5.25,1.67,10.58,2.51,16.01,2.51,7.83,0,15.86-1.74,24.07-5.23,13.76-5.84,24.23-14.93,31.41-27.27,4.07-6.96,5.1-12.82,3.08-17.59-.95-2.25-2.71-4.08-5.26-5.5-1.68-.93-3.19-1.4-4.51-1.4-.68,0-1.31,.12-1.9,.37-1.32,.56-2.77,2.11-4.35,4.66-1.76,2.85-4.31,5.71-7.66,8.58-3.35,2.87-6.61,4.97-9.79,6.32-2.97,1.26-6.09,1.89-9.35,1.89-2.61,0-5.32-.41-8.11-1.22-6.28-1.82-10.33-4.89-12.16-9.19-.76-1.79-.11-3.11,1.94-3.99l46.64-19.8c2.84-1.21,4.58-3.56,5.2-7.07,.62-3.5,.02-7.4-1.81-11.71-2.25-5.29-6.11-10.06-11.57-14.3Zm-33.74,28.96l-10.02,4.25c-1.72,.73-3.16,1.1-4.32,1.1-.44,0-.84-.05-1.2-.16-1.3-.39-2.37-1.57-3.21-3.56-1.18-2.78-1.35-5.94-.52-9.5,.88-3.81,3.17-6.5,6.88-8.07,1.67-.71,3.3-1.06,4.89-1.06s3.09,.34,4.58,1.02c3,1.38,5.27,3.85,6.78,7.43,1.66,3.9,.37,6.75-3.87,8.55Z"/><path class="cls-2" d="M405.39,92.59l-46.64,19.8c-2.05,.87-2.7,2.2-1.94,3.99,1.83,4.3,5.88,7.36,12.16,9.19,6.28,1.83,12.1,1.6,17.46-.68,3.18-1.35,6.44-3.45,9.79-6.32,3.35-2.87,5.9-5.73,7.66-8.58,1.57-2.54,3.02-4.09,4.35-4.66,1.72-.73,3.86-.39,6.41,1.03,2.55,1.42,4.31,3.25,5.26,5.5,2.02,4.76,1,10.63-3.08,17.59-7.18,12.34-17.65,21.43-31.41,27.27-13.89,5.9-27.25,6.81-40.07,2.72-6.25-2.03-12.06-5.23-17.42-9.59-7.08-5.82-12.37-12.86-15.88-21.13-4.72-11.11-5.58-22.54-2.6-34.27,2.56-10.15,7.54-19.01,14.94-26.6,5.54-5.71,12.25-10.23,20.12-13.58,12.57-5.34,24.77-6.3,36.6-2.89,5.95,1.69,11.32,4.41,16.11,8.15,5.47,4.24,9.33,9,11.57,14.3,1.83,4.3,2.43,8.2,1.81,11.71-.62,3.5-2.35,5.86-5.2,7.07Zm-51.94,.15l10.02-4.25c4.23-1.8,5.52-4.65,3.87-8.55-1.52-3.57-3.78-6.05-6.78-7.43-3.01-1.38-6.16-1.37-9.47,.04-3.71,1.57-6,4.26-6.88,8.07-.83,3.56-.66,6.72,.52,9.5,.84,1.98,1.91,3.17,3.21,3.56,1.3,.39,3.14,.08,5.52-.94Z"/><g><path class="cls-2" d="M238.25,226.98l-16.95-28.81c-1.28-2.18-.4-4.98,1.89-6.04h0c2.38-1.1,5.17,.19,5.89,2.7l9.17,32.14Z"/><path class="cls-2" d="M242.64,222.59l-1.35-23.38c-.11-1.94,1.48-3.55,3.42-3.45h0c2.03,.1,3.47,2,3.03,3.98l-5.1,22.86Z"/><path class="cls-2" d="M227.68,229.44l-20.94-10.49c-1.74-.87-2.34-3.05-1.29-4.69h0c1.09-1.71,3.46-2.02,4.96-.65l17.27,15.82Z"/></g><g><path class="cls-2" d="M354.59,229.62l-8.35-32.37c-.63-2.44,.99-4.9,3.48-5.28h0c2.59-.4,4.92,1.61,4.92,4.22l-.05,33.43Z"/><path class="cls-2" d="M360.01,226.61l5.15-22.85c.43-1.89,2.4-3,4.24-2.38h0c1.92,.65,2.79,2.88,1.82,4.66l-11.2,20.57Z"/><path class="cls-2" d="M343.74,229.07l-17.24-15.86c-1.43-1.31-1.4-3.58,.05-4.86h0c1.52-1.34,3.89-.98,4.94,.75l12.24,19.97Z"/></g><path class="cls-2" d="M316.3,265.55c-1.83,4.3-2.43,8.2-1.81,11.71,.62,3.5,2.35,5.86,5.2,7.07l46.64,19.8c2.05,.87,2.7,2.2,1.94,3.99-1.83,4.3-5.88,7.36-12.16,9.19-2.79,.81-5.5,1.22-8.11,1.22-3.26,0-6.37-.63-9.35-1.89-3.18-1.35-6.44-3.45-9.79-6.32-3.35-2.87-5.9-5.73-7.66-8.58-1.57-2.54-3.02-4.09-4.35-4.66-.58-.25-1.22-.37-1.9-.37-1.32,0-2.82,.47-4.51,1.4-2.55,1.42-4.31,3.25-5.26,5.5-2.02,4.76-1,10.63,3.08,17.59,7.18,12.34,17.65,21.43,31.41,27.27,8.21,3.48,16.23,5.23,24.07,5.23,5.43,0,10.76-.84,16.01-2.51,6.25-2.03,12.06-5.23,17.42-9.59,7.08-5.82,12.37-12.86,15.88-21.13,4.72-11.11,5.58-22.54,2.6-34.27-2.56-10.15-7.54-19.01-14.94-26.6-5.54-5.71-12.25-10.23-20.12-13.58-7.67-3.26-15.2-4.88-22.6-4.88-4.73,0-9.39,.66-14.01,1.99-5.95,1.69-11.32,4.41-16.11,8.15-5.47,4.24-9.33,9-11.57,14.3Zm41.44,6.11c1.52-3.57,3.78-6.05,6.78-7.43,1.49-.68,3.02-1.02,4.58-1.02s3.22,.35,4.89,1.06c3.71,1.57,6,4.26,6.88,8.07,.83,3.56,.66,6.72-.52,9.5-.84,1.98-1.91,3.17-3.21,3.56-.36,.11-.76,.16-1.2,.16-1.15,0-2.59-.37-4.32-1.1l-10.02-4.25c-4.23-1.8-5.52-4.65-3.87-8.55Z"/><path class="cls-2" d="M197.41,277.26c-.62-3.5-.02-7.4,1.81-11.71,2.25-5.29,6.1-10.06,11.57-14.3,4.79-3.74,10.16-6.46,16.11-8.15,11.83-3.41,24.03-2.45,36.6,2.89,7.87,3.34,14.58,7.87,20.12,13.58,7.4,7.59,12.38,16.46,14.94,26.6,2.99,11.73,2.12,23.15-2.6,34.27-3.51,8.27-8.8,15.32-15.88,21.13-5.36,4.36-11.17,7.56-17.42,9.59-12.82,4.09-26.18,3.18-40.07-2.72-13.76-5.84-24.23-14.93-31.41-27.27-4.07-6.96-5.1-12.82-3.08-17.59,.95-2.25,2.71-4.08,5.26-5.5,2.55-1.41,4.69-1.76,6.41-1.03,1.32,.56,2.77,2.11,4.35,4.66,1.76,2.85,4.31,5.71,7.66,8.58,3.35,2.87,6.61,4.97,9.79,6.32,5.36,2.28,11.18,2.5,17.46,.68,6.28-1.82,10.33-4.89,12.16-9.19,.76-1.79,.11-3.11-1.94-3.99l-46.64-19.8c-2.84-1.21-4.58-3.56-5.2-7.07Zm62.66,8.15c1.3-.39,2.37-1.57,3.21-3.56,1.18-2.78,1.35-5.94,.52-9.5-.88-3.81-3.17-6.5-6.88-8.07-3.31-1.4-6.47-1.42-9.47-.04-3,1.38-5.27,3.85-6.78,7.43-1.66,3.9-.37,6.75,3.87,8.55l10.02,4.25c2.38,1.01,4.22,1.32,5.52,.94Z"/></g>
</g></svg>