<?xml version="1.0" encoding="UTF-8"?><svg id="_레이어_2" xmlns="http://www.w3.org/2000/svg" viewBox="0 0 520 78.2"><defs><style>.cls-1{fill:var(--color-primaryContainer);}.cls-2{fill:var(--color-primary);}</style></defs><g id="_가로">
  <g id="primary_container"><path class="cls-1" d="M52.22,55.04l-6.25,14c-1.08,2.36-1.94,3.95-2.6,4.76-.66,.82-1.39,1.22-2.19,1.22s-1.44-.33-2.03-.99c-.38-.42-1.26-1.94-2.63-4.58-1.37-2.64-2.51-4.98-3.41-7.03l-6.87-15.46c-.94-2.15-1.93-3.23-2.97-3.23-1.11,0-1.72,.92-1.82,2.76-.24,4.1-.36,7.88-.36,11.35s.17,6.06,.52,7.34c.24,.76,.56,1.32,.96,1.67,.4,.35,1.48,.97,3.25,1.87,1.15,.59,1.72,1.61,1.72,3.07,0,3.89-4.98,5.83-14.94,5.83-8.4,0-12.6-1.89-12.6-5.67,0-.97,.22-1.67,.65-2.11s1.55-1.08,3.36-1.95c1.15-.52,1.92-1.23,2.32-2.13,.4-.9,.74-2.65,1.02-5.26,.31-2.78,.61-7.33,.88-13.67,.28-6.33,.42-11.76,.42-16.27,0-5.66-.43-9.49-1.3-11.51-.31-.69-.67-1.21-1.07-1.56-.4-.35-1.15-.8-2.26-1.35C1.54,14.97,.31,13.44,.31,11.57c0-1.21,.46-2.32,1.38-3.33,.92-1.01,2.14-1.72,3.67-2.13,1.53-.45,3.57-.84,6.12-1.17,2.55-.33,4.71-.5,6.48-.5,4.44,0,7.58,.36,9.42,1.09,.9,.35,1.61,.82,2.13,1.41,.52,.59,1.27,1.8,2.24,3.64l10.83,19.94c1.18,2.19,2,3.52,2.45,4.01,.45,.49,1.08,.73,1.87,.73,.69,0,1.31-.26,1.85-.78,.54-.52,1.17-1.49,1.9-2.92l7.34-14.32c.9-1.84,1.49-3.04,1.77-3.59,1.7-3.47,3.38-5.78,5.05-6.92,2.12-1.49,5.97-2.24,11.56-2.24,9.82,0,14.73,2.24,14.73,6.72,0,1.01-.19,1.81-.57,2.42-.38,.61-1.16,1.35-2.34,2.21-1.6,1.22-2.6,2.97-3.02,5.26-.8,4.79-1.2,10.62-1.2,17.49,0,8.85,.42,16.61,1.25,23.27,.21,1.63,.53,2.74,.96,3.33,.43,.59,1.55,1.48,3.36,2.65,1.25,.83,1.87,1.94,1.87,3.33,0,2.43-1.61,4.15-4.84,5.15-1.67,.55-3.42,.92-5.26,1.09-1.84,.17-4.67,.26-8.49,.26-5.87,0-10.24-.42-13.12-1.25-3.19-.94-4.79-2.53-4.79-4.79,0-.83,.21-1.52,.62-2.06,.42-.54,1.49-1.52,3.23-2.94,.9-.73,1.52-2.13,1.85-4.22,.33-2.08,.5-5.62,.5-10.62,0-2.78-.13-4.6-.39-5.47-.26-.87-.81-1.3-1.64-1.3-.97,0-1.91,.67-2.81,2-.9,1.34-2.26,4-4.06,7.99Z"/><path class="cls-1" d="M235.38,38.38v17.6c0,2.08,.51,3.78,1.54,5.1,1.02,1.32,2.33,1.98,3.93,1.98,1.35,0,3.14-.62,5.36-1.87,.52-.31,1.04-.47,1.56-.47,.83,0,1.6,.5,2.29,1.51,.69,1.01,1.04,2.1,1.04,3.28,0,2.15-1.18,4.22-3.54,6.19-4.93,4.2-10.9,6.3-17.91,6.3-5.55,0-10.01-1.57-13.38-4.71-3.37-3.14-5.05-7.28-5.05-12.42v-24.05c0-.8-.1-1.29-.29-1.48-.19-.19-.69-.29-1.48-.29h-5.36c-1.01,0-1.65-.16-1.93-.49-.28-.33-.42-1.1-.42-2.32v-2.29c.04-1.04,.43-1.8,1.2-2.29l23.84-14.99c.59-.31,1.32-.47,2.19-.47h4.22c.87,0,1.45,.2,1.74,.6,.29,.4,.44,1.19,.44,2.37v7.03c0,1.04,.16,1.72,.49,2.03,.33,.31,1.03,.47,2.11,.47h9.63c1.28,0,2.12,.23,2.5,.7,.38,.47,.57,1.47,.57,2.99v3.07c0,1.67-.24,2.82-.73,3.46-.49,.64-1.37,.96-2.65,.96h-9.42c-.97,0-1.63,.17-1.98,.52-.35,.35-.52,1.01-.52,1.98Z"/><path class="cls-1" d="M321.12,55.04l-6.25,14c-1.08,2.36-1.94,3.95-2.6,4.76-.66,.82-1.39,1.22-2.19,1.22s-1.44-.33-2.03-.99c-.38-.42-1.26-1.94-2.63-4.58-1.37-2.64-2.51-4.98-3.41-7.03l-6.87-15.46c-.94-2.15-1.93-3.23-2.97-3.23-1.11,0-1.72,.92-1.82,2.76-.24,4.1-.36,7.88-.36,11.35s.17,6.06,.52,7.34c.24,.76,.56,1.32,.96,1.67,.4,.35,1.48,.97,3.25,1.87,1.15,.59,1.72,1.61,1.72,3.07,0,3.89-4.98,5.83-14.94,5.83-8.4,0-12.6-1.89-12.6-5.67,0-.97,.22-1.67,.65-2.11s1.55-1.08,3.36-1.95c1.15-.52,1.92-1.23,2.32-2.13,.4-.9,.74-2.65,1.01-5.26,.31-2.78,.61-7.33,.89-13.67,.28-6.33,.42-11.76,.42-16.27,0-5.66-.43-9.49-1.3-11.51-.31-.69-.67-1.21-1.07-1.56-.4-.35-1.15-.8-2.26-1.35-2.46-1.18-3.7-2.71-3.7-4.58,0-1.21,.46-2.32,1.38-3.33,.92-1.01,2.14-1.72,3.67-2.13,1.53-.45,3.57-.84,6.12-1.17,2.55-.33,4.71-.5,6.48-.5,4.44,0,7.58,.36,9.42,1.09,.9,.35,1.61,.82,2.13,1.41,.52,.59,1.27,1.8,2.24,3.64l10.83,19.94c1.18,2.19,2,3.52,2.45,4.01s1.08,.73,1.88,.73c.69,0,1.31-.26,1.85-.78,.54-.52,1.17-1.49,1.9-2.92l7.34-14.32c.9-1.84,1.49-3.04,1.77-3.59,1.7-3.47,3.38-5.78,5.05-6.92,2.12-1.49,5.97-2.24,11.56-2.24,9.82,0,14.73,2.24,14.73,6.72,0,1.01-.19,1.81-.57,2.42-.38,.61-1.16,1.35-2.34,2.21-1.6,1.22-2.6,2.97-3.02,5.26-.8,4.79-1.2,10.62-1.2,17.49,0,8.85,.42,16.61,1.25,23.27,.21,1.63,.53,2.74,.96,3.33,.43,.59,1.55,1.48,3.36,2.65,1.25,.83,1.87,1.94,1.87,3.33,0,2.43-1.61,4.15-4.84,5.15-1.67,.55-3.42,.92-5.26,1.09-1.84,.17-4.67,.26-8.49,.26-5.87,0-10.24-.42-13.12-1.25-3.19-.94-4.79-2.53-4.79-4.79,0-.83,.21-1.52,.62-2.06,.42-.54,1.49-1.52,3.23-2.94,.9-.73,1.52-2.13,1.85-4.22,.33-2.08,.49-5.62,.49-10.62,0-2.78-.13-4.6-.39-5.47-.26-.87-.81-1.3-1.64-1.3-.97,0-1.91,.67-2.81,2-.9,1.34-2.26,4-4.06,7.99Z"/><path class="cls-1" d="M504.28,38.38v17.6c0,2.08,.51,3.78,1.54,5.1,1.02,1.32,2.33,1.98,3.93,1.98,1.35,0,3.14-.62,5.36-1.87,.52-.31,1.04-.47,1.56-.47,.83,0,1.6,.5,2.29,1.51,.69,1.01,1.04,2.1,1.04,3.28,0,2.15-1.18,4.22-3.54,6.19-4.93,4.2-10.9,6.3-17.91,6.3-5.55,0-10.01-1.57-13.38-4.71-3.37-3.14-5.05-7.28-5.05-12.42v-24.05c0-.8-.1-1.29-.29-1.48-.19-.19-.69-.29-1.48-.29h-5.36c-1.01,0-1.65-.16-1.93-.49-.28-.33-.42-1.1-.42-2.32v-2.29c.04-1.04,.43-1.8,1.2-2.29l23.84-14.99c.59-.31,1.32-.47,2.19-.47h4.22c.87,0,1.45,.2,1.74,.6,.29,.4,.44,1.19,.44,2.37v7.03c0,1.04,.16,1.72,.49,2.03,.33,.31,1.03,.47,2.11,.47h9.63c1.28,0,2.12,.23,2.5,.7,.38,.47,.57,1.47,.57,2.99v3.07c0,1.67-.24,2.82-.73,3.46-.49,.64-1.37,.96-2.65,.96h-9.42c-.97,0-1.63,.17-1.98,.52s-.52,1.01-.52,1.98Z"/></g>
  <g id="primary"><g><path class="cls-2" d="M122.21,18.29l4.03-15.63c.3-1.18-.48-2.37-1.68-2.55h0c-1.25-.19-2.38,.78-2.37,2.04l.02,16.14Z"/><path class="cls-2" d="M119.59,16.84l-2.49-11.03c-.21-.91-1.16-1.45-2.05-1.15h0c-.93,.31-1.35,1.39-.88,2.25l5.41,9.93Z"/><path class="cls-2" d="M127.44,18.03l8.32-7.66c.69-.63,.68-1.73-.03-2.35h0c-.74-.65-1.88-.47-2.39,.36l-5.91,9.64Z"/></g><g><path class="cls-2" d="M178.54,17.02l8.18-13.91c.62-1.05,.19-2.41-.91-2.92h0c-1.15-.53-2.5,.09-2.84,1.31l-4.43,15.52Z"/><path class="cls-2" d="M176.43,14.9l.65-11.29c.05-.94-.71-1.71-1.65-1.67h0c-.98,.05-1.68,.96-1.46,1.92l2.46,11.04Z"/><path class="cls-2" d="M183.65,18.21l10.11-5.07c.84-.42,1.13-1.47,.62-2.26h0c-.53-.82-1.67-.97-2.39-.31l-8.34,7.64Z"/></g><path class="cls-2" d="M135.27,28.74c-2.31-1.81-4.91-3.12-7.78-3.94-2.23-.64-4.48-.96-6.76-.96-3.57,0-7.21,.79-10.91,2.36-3.8,1.61-7.04,3.8-9.72,6.56-3.57,3.67-5.98,7.95-7.22,12.85-1.44,5.66-1.02,11.18,1.25,16.55,1.7,3.99,4.25,7.4,7.67,10.21,2.59,2.11,5.39,3.65,8.41,4.63,2.53,.81,5.11,1.21,7.73,1.21,3.78,0,7.66-.84,11.62-2.52,6.64-2.82,11.7-7.21,15.17-13.17,1.97-3.36,2.46-6.19,1.49-8.49-.46-1.09-1.31-1.97-2.54-2.65-.81-.45-1.54-.68-2.18-.68-.33,0-.63,.06-.92,.18-.64,.27-1.34,1.02-2.1,2.25-.85,1.38-2.08,2.76-3.7,4.14-1.62,1.38-3.19,2.4-4.73,3.05-1.44,.61-2.94,.91-4.51,.91-1.26,0-2.57-.2-3.92-.59-3.03-.88-4.99-2.36-5.87-4.44-.37-.86-.05-1.5,.94-1.92l22.52-9.56c1.37-.58,2.21-1.72,2.51-3.41,.3-1.69,0-3.58-.87-5.65-1.08-2.56-2.95-4.86-5.59-6.9Zm-16.29,13.98l-4.84,2.05c-.83,.35-1.53,.53-2.08,.53-.21,0-.41-.03-.58-.08-.63-.19-1.14-.76-1.55-1.72-.57-1.34-.65-2.87-.25-4.59,.43-1.84,1.53-3.14,3.32-3.9,.81-.34,1.59-.51,2.36-.51s1.49,.16,2.21,.49c1.45,.67,2.54,1.86,3.28,3.59,.8,1.89,.18,3.26-1.87,4.13Z"/><path class="cls-2" d="M195.76,44.71l-22.52,9.56c-.99,.42-1.3,1.06-.94,1.92,.88,2.08,2.84,3.56,5.87,4.44,3.03,.88,5.84,.77,8.43-.33,1.53-.65,3.11-1.67,4.73-3.05,1.62-1.38,2.85-2.77,3.7-4.14,.76-1.23,1.46-1.98,2.1-2.25,.83-.35,1.86-.19,3.09,.5,1.23,.68,2.08,1.57,2.54,2.65,.98,2.3,.48,5.13-1.49,8.49-3.47,5.96-8.52,10.35-15.17,13.17-6.71,2.85-13.16,3.29-19.35,1.31-3.02-.98-5.82-2.52-8.41-4.63-3.42-2.81-5.97-6.21-7.67-10.21-2.28-5.37-2.7-10.88-1.25-16.55,1.24-4.9,3.64-9.18,7.22-12.85,2.68-2.76,5.91-4.94,9.72-6.56,6.07-2.58,11.96-3.04,17.68-1.4,2.87,.82,5.47,2.13,7.78,3.94,2.64,2.05,4.5,4.35,5.59,6.9,.88,2.08,1.17,3.96,.87,5.65-.3,1.69-1.14,2.83-2.51,3.41Zm-25.08,.07l4.84-2.05c2.04-.87,2.67-2.24,1.87-4.13-.73-1.73-1.82-2.92-3.28-3.59-1.45-.67-2.98-.66-4.57,.02-1.79,.76-2.9,2.06-3.32,3.9-.4,1.72-.32,3.25,.25,4.59,.41,.96,.92,1.53,1.55,1.72,.63,.19,1.51,.04,2.66-.45Z"/><g><path class="cls-2" d="M383.95,17.02l-8.18-13.91c-.62-1.05-.19-2.41,.91-2.92h0c1.15-.53,2.5,.09,2.84,1.31l4.43,15.52Z"/><path class="cls-2" d="M386.07,14.9l-.65-11.29c-.05-.94,.71-1.71,1.65-1.67h0c.98,.05,1.68,.96,1.46,1.92l-2.46,11.04Z"/><path class="cls-2" d="M378.84,18.21l-10.11-5.07c-.84-.42-1.13-1.47-.62-2.26h0c.53-.82,1.67-.97,2.39-.31l8.34,7.64Z"/></g><g><path class="cls-2" d="M440.12,18.29l-4.03-15.63c-.3-1.18,.48-2.37,1.68-2.55h0c1.25-.19,2.38,.78,2.37,2.04l-.02,16.14Z"/><path class="cls-2" d="M442.74,16.84l2.49-11.03c.21-.91,1.16-1.45,2.05-1.15h0c.93,.31,1.35,1.39,.88,2.25l-5.41,9.93Z"/><path class="cls-2" d="M434.89,18.03l-8.32-7.66c-.69-.63-.68-1.73,.03-2.35h0c.74-.65,1.88-.47,2.39,.36l5.91,9.64Z"/></g><path class="cls-2" d="M421.64,35.65c-.88,2.08-1.17,3.96-.87,5.65,.3,1.69,1.14,2.83,2.51,3.41l22.52,9.56c.99,.42,1.3,1.06,.94,1.92-.88,2.08-2.84,3.56-5.87,4.44-1.35,.39-2.66,.59-3.92,.59-1.57,0-3.08-.3-4.51-.91-1.53-.65-3.11-1.67-4.73-3.05-1.62-1.38-2.85-2.77-3.7-4.14-.76-1.23-1.46-1.98-2.1-2.25-.28-.12-.59-.18-.92-.18-.64,0-1.36,.23-2.18,.68-1.23,.68-2.08,1.57-2.54,2.65-.98,2.3-.48,5.13,1.49,8.49,3.47,5.96,8.52,10.35,15.17,13.17,3.96,1.68,7.84,2.52,11.62,2.52,2.62,0,5.2-.4,7.73-1.21,3.02-.98,5.82-2.52,8.41-4.63,3.42-2.81,5.97-6.21,7.67-10.21,2.28-5.37,2.7-10.88,1.25-16.55-1.24-4.9-3.64-9.18-7.22-12.85-2.68-2.76-5.91-4.94-9.72-6.56-3.7-1.57-7.34-2.36-10.91-2.36-2.28,0-4.54,.32-6.76,.96-2.87,.82-5.47,2.13-7.78,3.94-2.64,2.05-4.5,4.35-5.59,6.9Zm20.01,2.95c.73-1.73,1.82-2.92,3.28-3.59,.72-.33,1.46-.49,2.21-.49s1.56,.17,2.36,.51c1.79,.76,2.9,2.06,3.32,3.9,.4,1.72,.32,3.25-.25,4.59-.41,.96-.92,1.53-1.55,1.72-.17,.05-.37,.08-.58,.08-.56,0-1.25-.18-2.08-.53l-4.84-2.05c-2.04-.87-2.67-2.24-1.87-4.13Z"/><path class="cls-2" d="M364.23,41.3c-.3-1.69,0-3.58,.87-5.65,1.08-2.56,2.95-4.86,5.59-6.9,2.31-1.81,4.91-3.12,7.78-3.94,5.71-1.65,11.61-1.18,17.68,1.4,3.8,1.61,7.04,3.8,9.72,6.56,3.57,3.67,5.98,7.95,7.22,12.85,1.44,5.66,1.02,11.18-1.25,16.55-1.7,3.99-4.25,7.4-7.67,10.21-2.59,2.11-5.39,3.65-8.41,4.63-6.19,1.97-12.64,1.53-19.35-1.31-6.64-2.82-11.7-7.21-15.17-13.17-1.97-3.36-2.46-6.19-1.49-8.49,.46-1.09,1.31-1.97,2.54-2.65,1.23-.68,2.26-.85,3.09-.5,.64,.27,1.34,1.02,2.1,2.25,.85,1.38,2.08,2.76,3.7,4.14,1.62,1.38,3.19,2.4,4.73,3.05,2.59,1.1,5.4,1.21,8.43,.33,3.03-.88,4.99-2.36,5.87-4.44,.37-.86,.05-1.5-.94-1.92l-22.52-9.56c-1.37-.58-2.21-1.72-2.51-3.41Zm30.26,3.94c.63-.19,1.14-.76,1.55-1.72,.57-1.34,.65-2.87,.25-4.59-.43-1.84-1.53-3.14-3.32-3.9-1.6-.68-3.12-.68-4.57-.02-1.45,.67-2.54,1.86-3.28,3.59-.8,1.89-.18,3.26,1.87,4.13l4.84,2.05c1.15,.49,2.04,.64,2.66,.45Z"/></g></g>
</svg>