<svg width="520" height="60" viewBox="0 0 520 60" fill="none" xmlns="http://www.w3.org/2000/svg">
<path d="M24.853 59.2127V0.00646973H71.9098V8.89408H34.4113V25.1732H62.4384V34.0608H34.4113V59.2127H24.853Z" fill="#116D38"/>
<path d="M75.6795 59.2128V10.6963C75.6525 9.28947 75.9334 7.89236 76.5048 6.59131C77.0762 5.29026 77.9259 4.11291 79.0016 3.13199C80.048 2.12041 81.3048 1.32107 82.694 0.783452C84.0831 0.245838 85.5752 -0.0185982 87.0778 0.00651814H116.508C118.015 -0.0148527 119.511 0.251166 120.905 0.788432C122.3 1.3257 123.563 2.12301 124.618 3.13199C125.707 4.10655 126.569 5.28155 127.15 6.58325C127.731 7.88496 128.019 9.28528 127.996 10.6963V59.2128H118.438V38.4923H85.1483V59.2128H75.6795ZM85.1562 29.6096H118.438V11.9307C118.54 11.0803 118.323 10.2229 117.824 9.50638C117.062 8.99531 116.121 8.77472 115.192 8.88918H88.394C87.4797 8.787 86.5575 9.00696 85.8064 9.50638C85.2754 10.2106 85.041 11.0741 85.1483 11.9307L85.1562 29.6096Z" fill="#116D38"/>
<path d="M147.636 59.2127C146.138 59.2156 144.654 58.9411 143.27 58.4049C141.886 57.8688 140.628 57.0815 139.569 56.0882C138.51 55.095 137.67 53.9154 137.099 52.6171C136.527 51.3189 136.234 49.9275 136.237 48.5229V10.6962C136.212 9.28874 136.495 7.89137 137.068 6.59037C137.642 5.28936 138.493 4.11232 139.57 3.13189C140.615 2.12189 141.871 1.32349 143.258 0.785944C144.645 0.248396 146.135 -0.0169005 147.636 0.0064191H182.968V8.89402H148.952C148.038 8.79184 147.115 9.0118 146.364 9.51122C145.833 10.2154 145.599 11.079 145.706 11.9356V47.2909C145.599 48.1483 145.834 49.0125 146.364 49.7178C147.116 50.2148 148.038 50.4337 148.952 50.3325H182.968V59.2201L147.636 59.2127Z" fill="#116D38"/>
<path d="M210.106 59.2127V8.89408H188.683V0.00646973H240.986V8.89408H219.577V59.2127H210.106Z" fill="#116D38"/>
<path d="M257.041 59.2126C255.544 59.2149 254.061 58.94 252.677 58.4036C251.293 57.8671 250.035 57.0798 248.976 56.0867C247.917 55.0936 247.078 53.9143 246.506 52.6163C245.934 51.3184 245.641 49.9273 245.643 48.5228V10.6962C245.618 9.28863 245.9 7.89113 246.474 6.59006C247.047 5.28899 247.898 4.112 248.976 3.13184C250.021 2.12137 251.276 1.32266 252.663 0.785074C254.051 0.247491 255.541 -0.0175381 257.041 0.00636736H286.561C288.054 -0.00933609 289.535 0.259606 290.914 0.796873C292.293 1.33414 293.541 2.12853 294.582 3.13184C295.671 4.10594 296.533 5.28085 297.115 6.58267C297.696 7.88448 297.984 9.28502 297.96 10.6962V48.5228C297.984 49.934 297.696 51.3345 297.115 52.6363C296.533 53.9381 295.671 55.1131 294.582 56.0872C293.541 57.0905 292.293 57.8849 290.914 58.4221C289.535 58.9594 288.054 59.2283 286.561 59.2126H257.041ZM258.358 50.325H285.166C286.095 50.4382 287.035 50.2187 287.798 49.7103C288.296 48.9924 288.512 48.1344 288.409 47.2835V11.9306C288.512 11.0804 288.296 10.2231 287.798 9.50623C287.036 8.99561 286.095 8.77507 285.166 8.88904H258.358C257.443 8.78733 256.521 9.00724 255.77 9.50623C255.24 10.2109 255.007 11.0743 255.115 11.9306V47.2909C255.007 48.1479 255.241 49.012 255.77 49.7177C256.523 50.2143 257.444 50.4332 258.358 50.3324V50.325Z" fill="#116D38"/>
<path d="M305.764 59.2126V0.087845H346.593C348.103 0.0688719 349.602 0.3401 350.997 0.884831C352.392 1.42956 353.653 2.23627 354.703 3.25529C355.781 4.22816 356.636 5.39756 357.214 6.69161C357.793 7.98566 358.083 9.37701 358.067 10.7801V27.3901C358.033 30.2299 356.809 32.9431 354.66 34.9434C352.51 36.9437 349.608 38.0703 346.58 38.0799H340.262L357.799 57.5709V59.2151H346.743L327.892 38.0799H315.207V59.2151L305.764 59.2126ZM318.479 29.1133H345.279C346.201 29.2224 347.135 29.0193 347.912 28.5405C348.417 27.8404 348.635 26.9924 348.525 26.1532V12.0121C348.628 11.1616 348.411 10.3042 347.912 9.58771C347.149 9.07754 346.208 8.85704 345.279 8.97051H318.479C317.564 8.86976 316.643 9.08959 315.891 9.58771C315.36 10.2919 315.126 11.1555 315.233 12.0121V26.1557C315.118 27.0011 315.354 27.8556 315.891 28.543C316.656 29.0102 317.571 29.2128 318.479 29.1158V29.1133Z" fill="#116D38"/>
<path d="M376.841 59.2126C375.344 59.2149 373.86 58.94 372.476 58.4036C371.092 57.8671 369.835 57.0798 368.776 56.0867C367.717 55.0936 366.878 53.9143 366.306 52.6163C365.734 51.3184 365.441 49.9273 365.443 48.5228V10.6962C365.417 9.28863 365.7 7.89113 366.273 6.59006C366.847 5.28899 367.698 4.112 368.776 3.13184C369.821 2.12137 371.076 1.32266 372.463 0.785074C373.85 0.247491 375.34 -0.0175381 376.841 0.00636736H406.361C407.854 -0.00933609 409.335 0.259606 410.714 0.796873C412.092 1.33414 413.34 2.12853 414.382 3.13184C415.472 4.10551 416.335 5.28023 416.917 6.58207C417.499 7.8839 417.788 9.28466 417.765 10.6962V48.5228C417.789 49.934 417.501 51.3345 416.92 52.6363C416.338 53.9381 415.476 55.1131 414.387 56.0872C413.346 57.0905 412.098 57.8849 410.719 58.4221C409.34 58.9594 407.859 59.2283 406.366 59.2126H376.841ZM378.157 50.325H404.958C405.887 50.4382 406.827 50.2187 407.59 49.7103C408.088 48.9924 408.304 48.1344 408.201 47.2835V11.9306C408.304 11.0804 408.088 10.2231 407.59 9.50623C406.828 8.99561 405.887 8.77507 404.958 8.88904H378.157C377.244 8.78676 376.323 9.00675 375.572 9.50623C375.04 10.2099 374.806 11.0739 374.914 11.9306V47.2909C374.806 48.1483 375.04 49.013 375.572 49.7177C376.324 50.215 377.244 50.434 378.157 50.3324V50.325Z" fill="#116D38"/>
<path d="M425.301 59.2127V0.00646973H434.778V59.2127H425.301Z" fill="#116D38"/>
<path d="M442.836 59.2126V0.00631967H483.664C485.172 -0.0150512 486.668 0.250967 488.062 0.788234C489.456 1.3255 490.719 2.12281 491.775 3.13179C492.862 4.10699 493.722 5.28228 494.302 6.58395C494.882 7.88563 495.169 9.28562 495.144 10.6961V48.5228C495.168 49.9338 494.879 51.3341 494.298 52.6358C493.717 53.9376 492.855 55.1126 491.767 56.0871C490.711 57.0961 489.448 57.8934 488.054 58.4307C486.66 58.9679 485.164 59.234 483.657 59.2126H442.836ZM455.55 50.325H482.351C483.28 50.4389 484.22 50.2193 484.983 49.7103C485.482 48.9927 485.699 48.1346 485.597 47.2834V11.9305C485.699 11.0801 485.482 10.2227 484.983 9.50618C484.221 8.99397 483.28 8.77326 482.351 8.88899H455.55C454.636 8.78681 453.714 9.00676 452.963 9.50618C452.432 10.2104 452.197 11.0739 452.305 11.9305V47.2908C452.198 48.1482 452.432 49.0124 452.963 49.7177C453.715 50.2147 454.637 50.4336 455.55 50.3324V50.325Z" fill="#116D38"/>
<path d="M506.116 18.9494C504.917 18.4909 503.832 17.807 502.926 16.9398C501.999 16.0466 501.27 14.9903 500.78 13.8316C500.241 12.5587 499.973 11.1992 499.991 9.8297C499.973 8.46182 500.241 7.10398 500.78 5.83275C501.271 4.67545 502 3.62013 502.926 2.72702C503.833 1.86154 504.919 1.17787 506.116 0.717438C508.613 -0.239146 511.411 -0.239146 513.908 0.717438C515.093 1.18384 516.167 1.86701 517.067 2.72702C517.991 3.62099 518.719 4.67612 519.21 5.83275C519.749 7.10398 520.017 8.46182 519.999 9.8297C520.017 11.1992 519.749 12.5587 519.21 13.8316C518.72 14.9878 517.991 16.0423 517.067 16.9348C516.168 17.7966 515.094 18.48 513.908 18.9444C511.41 19.8973 508.614 19.8973 506.116 18.9444V18.9494ZM513.121 17.2879C514.077 16.9108 514.937 16.3489 515.645 15.6387C516.373 14.8999 516.939 14.0343 517.312 13.091C517.722 12.0474 517.925 10.9419 517.909 9.8297C517.921 8.73465 517.718 7.64688 517.312 6.62029C516.94 5.67658 516.374 4.81081 515.645 4.07251C514.921 3.34963 514.046 2.77354 513.076 2.37975C512.105 1.98595 511.058 1.7828 510 1.7828C508.943 1.7828 507.896 1.98595 506.925 2.37975C505.954 2.77354 505.08 3.34963 504.355 4.07251C503.627 4.81147 503.061 5.67706 502.689 6.62029C502.282 7.64688 502.08 8.73465 502.091 9.8297C502.076 10.9419 502.278 12.0474 502.689 13.091C503.062 14.0346 503.628 14.9009 504.355 15.6412C505.064 16.351 505.924 16.9129 506.88 17.2904C508.878 18.066 511.123 18.066 513.121 17.2904V17.2879ZM513.097 5.35874C513.524 5.63317 513.865 6.01052 514.082 6.45106C514.3 6.8916 514.387 7.37905 514.335 7.86209C514.334 8.45873 514.143 9.04159 513.787 9.53592C513.445 10.0431 512.933 10.4289 512.331 10.6321L514.808 14.787H512.379L510.475 11.2567H508.33V14.787H506.14V4.65514H510.189C511.21 4.63202 512.218 4.87929 513.097 5.36862V5.35874ZM512 7.9954C512.012 7.77437 511.976 7.55334 511.894 7.34578C511.812 7.13823 511.686 6.9485 511.523 6.78817C511.033 6.44045 510.42 6.28228 509.809 6.34626H508.333V9.7038H509.712C511.237 9.7038 512 9.13762 512 8.00527V7.9954Z" fill="#116D38"/>
</svg>
