<svg width="20" height="20" viewBox="0 0 20 20" fill="none" xmlns="http://www.w3.org/2000/svg">
<path d="M20 10C20 8.02219 19.4135 6.08879 18.3147 4.4443C17.2159 2.79981 15.6541 1.51808 13.8268 0.761205C11.9996 0.00432834 9.98891 -0.193705 8.0491 0.192147C6.10929 0.577999 4.32746 1.53041 2.92893 2.92893C1.53041 4.32746 0.577999 6.10929 0.192147 8.0491C-0.193705 9.98891 0.00432836 11.9996 0.761205 13.8268C1.51808 15.6541 2.79981 17.2159 4.4443 18.3147C6.08879 19.4135 8.02219 20 10 20V18C8.41775 18 6.87103 17.5308 5.55544 16.6518C4.23984 15.7727 3.21446 14.5233 2.60896 13.0615C2.00346 11.5997 1.84504 9.99113 2.15372 8.43928C2.4624 6.88743 3.22433 5.46197 4.34315 4.34315C5.46197 3.22433 6.88743 2.4624 8.43928 2.15372C9.99113 1.84504 11.5997 2.00346 13.0615 2.60896C14.5233 3.21446 15.7727 4.23984 16.6518 5.55544C17.5308 6.87103 18 8.41775 18 10H20Z" fill="#414941"/>
</svg>
