<svg width="current" height="current" viewBox="0 0 24 24" fill="none" xmlns="http://www.w3.org/2000/svg">
<path d="M12 2C10.0222 2 8.08879 2.58649 6.4443 3.6853C4.79981 4.78412 3.51808 6.3459 2.76121 8.17316C2.00433 10.0004 1.8063 12.0111 2.19215 13.9509C2.578 15.8907 3.53041 17.6725 4.92893 19.0711C6.32746 20.4696 8.10929 21.422 10.0491 21.8078C11.9889 22.1937 13.9996 21.9957 15.8268 21.2388C17.6541 20.4819 19.2159 19.2002 20.3147 17.5557C21.4135 15.9112 22 13.9778 22 12C22 9.34783 20.9464 6.8043 19.0711 4.92893C17.1957 3.05357 14.6522 2 12 2ZM7.07 18.28C7.5 17.38 10.12 16.5 12 16.5C13.88 16.5 16.51 17.38 16.93 18.28C15.5282 19.3938 13.7905 20.0001 12 20.0001C10.2095 20.0001 8.47184 19.3938 7.07 18.28ZM18.36 16.8333C16.93 15.09 13.46 14.5 12 14.5C10.54 14.5 7.07 15.09 5.64 16.8333C4.73535 15.6477 4.1801 14.2329 4.03695 12.7484C3.89379 11.264 4.16841 9.76907 4.82982 8.43243C5.49123 7.09579 6.51309 5.97064 7.78006 5.18398C9.04703 4.39732 10.5087 3.98046 12 3.98046C13.4913 3.98046 14.953 4.39732 16.2199 5.18398C17.4869 5.97064 18.5088 7.09579 19.1702 8.43243C19.8316 9.76907 20.1062 11.264 19.9631 12.7484C19.8199 14.2329 19.2647 15.6477 18.36 16.8333ZM12 6C11.3078 6 10.6311 6.20527 10.0555 6.58986C9.47993 6.97444 9.03133 7.52107 8.76642 8.16061C8.50152 8.80015 8.4322 9.50388 8.56725 10.1828C8.7023 10.8617 9.03564 11.4854 9.52513 11.9749C10.0146 12.4644 10.6383 12.7977 11.3172 12.9327C11.9961 13.0678 12.6999 12.9985 13.3394 12.7336C13.9789 12.4687 14.5256 12.0201 14.9101 11.4445C15.2947 10.8689 15.5 10.1922 15.5 9.5C15.5012 9.04003 15.4115 8.58436 15.236 8.15918C15.0606 7.73399 14.8028 7.34768 14.4776 7.02243C14.1523 6.69718 13.766 6.43942 13.3408 6.26396C12.9156 6.08849 12.46 5.99879 12 6ZM12 11C11.7033 11 11.4133 10.912 11.1666 10.7472C10.92 10.5824 10.7277 10.3481 10.6142 10.074C10.5007 9.79994 10.4709 9.49833 10.5288 9.20736C10.5867 8.91639 10.7296 8.64912 10.9393 8.43934C11.1491 8.22956 11.4164 8.0867 11.7074 8.02882C11.9983 7.97094 12.2999 8.00065 12.574 8.11418C12.8481 8.22771 13.0824 8.41997 13.2472 8.66664C13.412 8.91332 13.5 9.20333 13.5 9.5C13.5 9.89782 13.342 10.2794 13.0607 10.5607C12.7794 10.842 12.3978 11 12 11Z" fill="current" fill-opacity="1"/>
</svg>
